<svg width="874" height="876" viewBox="0 0 874 876" fill="none" xmlns="http://www.w3.org/2000/svg">
<path fill-rule="evenodd" clip-rule="evenodd" d="M485.806 289.619C561.772 330.892 675.703 313.266 713.831 390.857C753.801 472.197 713.353 572.792 661.472 647.102C613.497 715.818 534.284 754.854 451.338 766.831C377.573 777.482 304.145 752.195 244.667 707.285C192.16 667.639 170.419 604.573 152.576 541.245C134.395 476.724 120.898 411.146 143.434 348.013C171.124 270.443 207.516 173.735 288.708 159.888C369.31 146.14 413.959 250.585 485.806 289.619Z" stroke="#E8E8E8"/>
<path fill-rule="evenodd" clip-rule="evenodd" d="M607.561 229.014C670.257 288.541 784.868 301.004 801.615 385.82C819.17 474.732 754.064 561.432 684.718 619.782C620.592 673.739 533.975 690.943 450.756 681.044C376.748 672.24 312.367 628.811 266.539 570.037C226.082 518.152 221.405 451.608 220.56 385.82C219.698 318.791 223.634 251.954 261.742 196.806C308.565 129.046 368.747 45.052 450.756 52.69C532.17 60.2725 548.265 172.714 607.561 229.014Z" stroke="#E8E8E8"/>
<path d="M765.578 305.685C762.474 303.893 758.603 304.766 756.949 307.631C755.843 309.545 756.027 311.861 757.181 313.729L753.763 319.648C752.935 321.084 753.523 322.974 755.078 323.871C756.633 324.769 758.564 324.334 759.392 322.898L762.81 316.979C765.005 317.044 767.102 316.045 768.207 314.131C769.861 311.266 768.682 307.477 765.578 305.685Z" fill="#FFC000"/>
<path d="M745.683 318.213C744.474 320.306 743.844 322.352 743.793 324.349C743.776 326.365 744.25 328.215 745.217 329.899C746.204 331.549 747.623 332.909 749.474 333.978C751.359 335.066 753.262 335.624 755.185 335.654C757.16 335.668 758.999 335.154 760.703 334.112C762.44 333.088 763.913 331.529 765.122 329.435L778.868 305.626L781.249 307L767.414 330.962C765.913 333.562 764.081 335.476 761.917 336.704C759.787 337.951 757.513 338.529 755.097 338.44C752.713 338.369 750.381 337.676 748.1 336.359C745.818 335.042 744.035 333.359 742.749 331.311C741.496 329.282 740.877 327.033 740.892 324.565C740.906 322.097 741.664 319.562 743.166 316.962L757 293L759.43 294.403L745.683 318.213Z" fill="#FFC000"/>
<path d="M525.058 297.46C522.74 298.799 521.859 301.629 523.094 303.769C523.92 305.199 525.486 305.945 527.126 305.896L529.678 310.318C530.297 311.39 531.74 311.715 532.901 311.044C534.062 310.374 534.502 308.962 533.883 307.89L531.33 303.468C532.192 302.073 532.329 300.343 531.504 298.914C530.268 296.774 527.376 296.122 525.058 297.46Z" fill="#EBEBEB"/>
<path d="M525.926 315.422C526.829 316.986 527.917 318.158 529.189 318.937C530.487 319.701 531.861 320.085 533.311 320.088C534.747 320.066 536.157 319.656 537.54 318.858C538.947 318.045 540.019 317.023 540.756 315.79C541.503 314.518 541.858 313.136 541.82 311.644C541.806 310.138 541.348 308.604 540.445 307.04L530.177 289.255L531.955 288.229L542.289 306.127C543.41 308.069 543.964 309.969 543.95 311.827C543.961 313.671 543.486 315.357 542.526 316.887C541.59 318.403 540.27 319.653 538.566 320.636C536.862 321.62 535.108 322.145 533.303 322.212C531.522 322.265 529.836 321.825 528.245 320.894C526.654 319.963 525.298 318.526 524.176 316.584L513.843 298.686L515.658 297.638L525.926 315.422Z" fill="#EBEBEB"/>
</svg>
